<?xml version="1.0" encoding="utf-8"?>
<!-- Generator: Adobe Illustrator 24.2.3, SVG Export Plug-In . SVG Version: 6.00 Build 0)  -->
<svg version="1.1" id="Camada_1" xmlns="http://www.w3.org/2000/svg" xmlns:xlink="http://www.w3.org/1999/xlink" x="0px" y="0px"
	 viewBox="0 0 841.89 595.28" style="enable-background:new 0 0 841.89 595.28;" xml:space="preserve">
<style type="text/css">
	.st0{fill:#2D5980;}
	.st1{fill:#B2B7BB;}
	.st2{fill:#50841E;}
	.st3{opacity:0.2;fill:#50841E;}
	.st4{fill:#7AC142;}
	.st5{fill:#66A331;}
	.st6{opacity:0.1;fill:#66A331;}
	.st7{opacity:0.4;fill:#66A331;}
	.st8{opacity:0.2;fill:#66A331;}
	.st9{fill:#002A5C;}
</style>
<g>
	<g>
		<g id="Pin_1_">
			<g id="XMLID_3554_">
				<g id="XMLID_3555_">
					<path id="XMLID_3556_" class="st0" d="M215.47,186.42C215.47,186.41,215.46,186.41,215.47,186.42
						c-0.27-0.16-0.58-0.35-0.85-0.5l-26.11-14.99c-5.86-3.92-12.74-5.98-20.39-5.98c-9.13,0-18.35,3.31-29.2,9.31
						c-37.92,21.01-70.32,81.58-70.32,121.36v11.01c0,48.21,63.4,107.05,63.4,107.05l26.29,15.19c0.04,0.05,0.07,0.05,0.12,0.05
						c-0.88-1.03,27.94-43.07,55.11-125.07C243.6,213.08,216.04,186.94,215.47,186.42z M171.1,330.55
						c-21.46,12.4-39.46,5.9-44.56-14.1c-9.85-1.39-16.96-8.93-19.15-21.36c-2.76-40.15,18.57-72.14,49.11-85.12
						c13.06-4.75,24-1.36,29.85,8.47c17.95-3.08,30.78,9.22,30.78,32.38C217.13,280.16,196.53,315.88,171.1,330.55z"/>
				</g>
			</g>
			<path id="XMLID_3553_" class="st1" d="M217.13,250.82c0,29.34-20.6,65.06-46.03,79.73c-21.46,12.4-39.46,5.9-44.56-14.1
				c6.45,0.93,14.08-0.8,22.27-5.54c23.29-13.43,42.16-46.12,42.16-72.99c0-7.97-1.67-14.54-4.62-19.48
				C204.3,215.36,217.13,227.66,217.13,250.82z"/>
			<g id="XMLID_3526_">
				<g id="XMLID_3550_">
					<polygon id="XMLID_3552_" class="st2" points="135.22,313.64 149.84,322.08 149.84,293.78 135.22,285.35 					"/>
					<polygon id="XMLID_3551_" class="st3" points="135.22,313.64 149.84,322.08 149.84,293.78 135.22,285.35 					"/>
				</g>
				<polygon id="XMLID_3549_" class="st4" points="204.94,261.97 171.08,246.09 137.22,301.07 149.84,293.78 149.84,322.08 
					165.84,312.84 165.84,294.33 176.31,288.29 176.31,306.8 192.33,297.54 192.33,269.24 				"/>
				<g id="XMLID_3546_">
					<polygon id="XMLID_3548_" class="st5" points="156.46,237.66 171.08,246.09 137.22,301.07 122.6,292.63 					"/>
					<polygon id="XMLID_3547_" class="st6" points="156.46,237.66 171.08,246.09 137.22,301.07 122.6,292.63 					"/>
				</g>
				<g id="XMLID_3530_">
					<polygon id="XMLID_3532_" class="st5" points="156.46,237.66 171.08,246.09 204.94,261.97 190.32,253.53 					"/>
					<polygon id="XMLID_3531_" class="st7" points="156.46,237.66 171.08,246.09 204.94,261.97 190.32,253.53 					"/>
				</g>
				<g id="XMLID_3527_">
					<polygon id="XMLID_3529_" class="st5" points="165.84,312.84 176.31,306.8 176.31,288.29 165.84,294.33 					"/>
					<polygon id="XMLID_3528_" class="st8" points="165.84,312.84 176.31,306.8 176.31,288.29 165.84,294.33 					"/>
				</g>
			</g>
			<g id="XMLID_3521_">
				<path id="XMLID_3522_" class="st9" d="M215.47,186.42C215.47,186.41,215.46,186.41,215.47,186.42c-0.27-0.16-0.58-0.35-0.85-0.5
					c-12.67-7.12-29.61-6.16-48.21,4.56c-28.05,16.22-52.33,50.27-63.83,86.01c-4.56,14.16-6.49,21.65-6.49,35.35v11
					c0,37.15,41.43,87.12,60.79,104.97c0.46,0.42,0.92,0.76,1.41,1.06c0.04,0.05,0.07,0.05,0.12,0.05
					c4.68,2.89,11.03,1.25,13.54-3.92c16.7-34.21,65.38-137.23,65.38-177.16v-11C237.35,212.07,228.97,194.53,215.47,186.42z
					 M126.54,316.45c-0.27-1.03-0.5-2.09-0.69-3.19c-0.54-2.87-0.79-5.98-0.79-9.29c0-29.34,20.6-65.05,46.04-79.72
					c2.86-1.64,5.68-2.97,8.4-3.96c2.36-0.85,4.64-1.48,6.86-1.85c17.95-3.08,30.78,9.22,30.78,32.38
					c0,29.34-20.6,65.06-46.03,79.73C149.63,342.96,131.63,336.46,126.54,316.45z"/>
			</g>
		</g>
	</g>
	<g>
		<g>
			<path class="st4" d="M594.38,263.94h-20.11v61.66h-7.84v-61.66h-20.19v-7.75h48.14V263.94z"/>
			<path class="st4" d="M611.73,263.9v21.96h28.55v7.84h-28.55v24.11h32.94v7.79h-40.78v-69.41h40.78v7.71H611.73z"/>
			<path class="st4" d="M653.45,290.94c0-19.51,16.19-35.74,35.65-35.74c8.91,0.09,17.57,4.18,23.85,10.51l-4.56,6.16
				c-5-5.12-11.97-8.7-19.59-8.7c-13.95,0-27.43,12.06-27.43,27.77c0,15.67,13.35,27.69,27.56,27.69c7.84,0,14.51-3.7,19.51-8.61
				l4.52,6.29c-5.77,5.73-13.56,10.2-23.81,10.2C669.86,326.51,653.45,310.62,653.45,290.94z"/>
			<path class="st4" d="M773.28,256.19v69.41h-7.79v-30.87H730.3v30.87h-7.84v-69.41h7.84v30.79h35.18v-30.79H773.28z"/>
		</g>
		<g>
			<path class="st9" d="M312.98,254.32v69.41h-18.39v-26.14h-20.62v26.14h-18.43v-69.41h18.43v26.05h20.62v-26.05H312.98z"/>
			<path class="st9" d="M322.01,289.11c0-20.84,16.53-36.64,38.11-36.64c21.57,0,38.11,15.8,38.11,36.64
				c0,20.67-16.53,36.38-38.15,36.38C338.51,325.49,322.01,309.78,322.01,289.11z M379.58,288.98c0-10.72-8.44-18.99-19.46-18.99
				s-19.46,8.27-19.46,18.99c0,10.68,8.44,18.9,19.46,18.9S379.58,299.66,379.58,288.98z"/>
			<path class="st9" d="M481.67,253.67v70.05h-18.43v-27.51l-18.69,26.35h-0.13l-18.73-26.35v27.51h-18.43v-70.05h7.41l29.8,40.82
				l29.8-40.82H481.67z"/>
			<path class="st9" d="M511.93,271.46v9.69h22.05v15.37h-22.05v9.95h26.78v17.27h-45v-69.41h45v17.14H511.93z"/>
		</g>
	</g>
	<g>
		<rect x="255.36" y="339.96" class="st1" width="517.92" height="4.16"/>
	</g>
	<g>
		<path class="st0" d="M611.92,374.52v13.1h-2.39v-28.96h9.65c3.11,0,5.49,0.68,7.15,2.04s2.49,3.35,2.49,5.96
			c0,1.54-0.44,2.92-1.32,4.13c-0.88,1.21-2.13,2.1-3.75,2.66c1.79,0.45,3.08,1.26,3.87,2.42s1.18,2.62,1.18,4.37v2.73
			c0,0.9,0.11,1.71,0.32,2.43c0.21,0.72,0.56,1.3,1.05,1.75v0.48h-2.43c-0.49-0.48-0.84-1.15-1.04-2.01c-0.2-0.86-0.3-1.76-0.3-2.69
			v-2.65c0-1.78-0.57-3.18-1.72-4.21c-1.15-1.03-2.75-1.54-4.81-1.54H611.92z M611.92,372.49h6.99c2.61,0,4.53-0.53,5.73-1.58
			c1.21-1.05,1.81-2.48,1.81-4.27c0-1.91-0.6-3.38-1.8-4.41c-1.2-1.03-3.02-1.54-5.46-1.54h-7.27V372.49z"/>
		<path class="st0" d="M649.12,373.58h-13v12.02h15.03v2.01h-17.42v-28.98h17.32v2.03h-14.93v10.89h13V373.58z"/>
		<path class="st0" d="M674.36,383.71c-0.64,1.05-1.82,2.03-3.53,2.95c-1.72,0.92-3.88,1.37-6.5,1.37c-3.33,0-6.06-1.15-8.18-3.44
			c-2.12-2.3-3.19-5.27-3.19-8.92v-5.32c0-3.58,1.03-6.5,3.09-8.76c2.06-2.26,4.72-3.38,7.98-3.38c3.14,0,5.64,0.83,7.49,2.49
			c1.85,1.66,2.75,3.77,2.7,6.33l-0.06,0.12h-2.19c0-2-0.69-3.66-2.07-4.96c-1.38-1.3-3.34-1.95-5.87-1.95
			c-2.6,0-4.7,0.94-6.29,2.83c-1.59,1.88-2.39,4.3-2.39,7.25v5.35c0,3.03,0.83,5.51,2.49,7.44c1.66,1.94,3.82,2.91,6.49,2.91
			c2.03,0,3.69-0.3,4.98-0.92c1.29-0.61,2.18-1.32,2.69-2.13v-7.43h-7.8v-2.03h10.17V383.71z"/>
		<path class="st0" d="M682.39,387.61H680v-28.98h2.39V387.61z"/>
		<path class="st0" d="M704.31,380.57c0-1.49-0.59-2.71-1.77-3.68c-1.18-0.97-3.18-1.88-6.01-2.73c-3.09-0.85-5.44-1.91-7.06-3.17
			c-1.61-1.27-2.42-2.99-2.42-5.17c0-2.22,0.9-4.04,2.71-5.46c1.8-1.43,4.11-2.14,6.91-2.14c2.95,0,5.31,0.81,7.11,2.42
			c1.79,1.61,2.66,3.66,2.61,6.14l-0.04,0.12h-2.23c0-1.91-0.69-3.5-2.08-4.76s-3.17-1.89-5.36-1.89c-2.26,0-4.02,0.53-5.31,1.6
			c-1.28,1.07-1.92,2.38-1.92,3.93c0,1.47,0.58,2.68,1.74,3.63c1.16,0.95,3.21,1.83,6.14,2.66c3.05,0.89,5.38,1.98,6.99,3.28
			c1.61,1.3,2.41,3.03,2.41,5.18c0,2.26-0.94,4.07-2.82,5.44c-1.88,1.37-4.24,2.06-7.1,2.06c-2.85,0-5.34-0.73-7.46-2.18
			c-2.12-1.45-3.15-3.57-3.08-6.36l0.04-0.12h2.21c0,2.24,0.84,3.91,2.53,5.01c1.69,1.09,3.61,1.64,5.77,1.64
			c2.22,0,4.02-0.51,5.41-1.52C703.61,383.48,704.31,382.17,704.31,380.57z"/>
		<path class="st0" d="M729.83,360.66h-9.87v26.95h-2.37v-26.95h-10.21v-2.03h22.45V360.66z"/>
		<path class="st0" d="M747.43,373.58h-13v12.02h15.03v2.01h-17.42v-28.98h17.32v2.03h-14.93v10.89h13V373.58z"/>
		<path class="st0" d="M754.4,374.52v13.1h-2.39v-28.96h9.65c3.11,0,5.49,0.68,7.15,2.04s2.49,3.35,2.49,5.96
			c0,1.54-0.44,2.92-1.32,4.13c-0.88,1.21-2.13,2.1-3.75,2.66c1.79,0.45,3.08,1.26,3.87,2.42s1.18,2.62,1.18,4.37v2.73
			c0,0.9,0.11,1.71,0.32,2.43c0.21,0.72,0.56,1.3,1.05,1.75v0.48h-2.43c-0.49-0.48-0.84-1.15-1.04-2.01c-0.2-0.86-0.3-1.76-0.3-2.69
			v-2.65c0-1.78-0.57-3.18-1.72-4.21c-1.15-1.03-2.75-1.54-4.81-1.54H754.4z M754.4,372.49h6.99c2.61,0,4.53-0.53,5.73-1.58
			c1.21-1.05,1.81-2.48,1.81-4.27c0-1.91-0.6-3.38-1.8-4.41c-1.2-1.03-3.02-1.54-5.46-1.54h-7.27V372.49z"/>
	</g>
</g>
</svg>
