<?xml version="1.0" encoding="utf-8"?>
<!-- Generator: Adobe Illustrator 24.2.3, SVG Export Plug-In . SVG Version: 6.00 Build 0)  -->
<svg version="1.1" id="Camada_1" xmlns="http://www.w3.org/2000/svg" xmlns:xlink="http://www.w3.org/1999/xlink" x="0px" y="0px"
	 viewBox="0 0 25 41" style="enable-background:new 0 0 25 41;" xml:space="preserve">
<style type="text/css">
	.st0{fill:#FFFFFF;}
	.st1{fill:#E31D1A;}
	.st2{font-family:'Arial-BoldMT';}
	.st3{font-size:12px;}
</style>
<ellipse class="st0" cx="12.5" cy="14.6" rx="10.57" ry="10.12"/>
<g>
	<path class="st1" d="M23.69,12.22c-0.49-2.71-2.14-5.19-4.25-6.92c-1.62-1.32-3.91-2.2-6.12-2.35c-0.72-0.01-1.43,0.02-2.13,0.11
		c-0.03,0.01-0.06,0.01-0.09,0.02l0,0C9.02,3.35,7.06,4.09,5.47,5.42c-2.09,1.74-3.72,4.25-4.19,6.96c-0.53,3.1,0.21,6.32,1.28,9.23
		c1.14,3.11,3.24,5.79,4.99,8.58c0.91,1.45,1.76,2.93,2.69,4.36c0.74,1.15,1.62,2.2,2.32,3.37l0.04,0.1l0.06-0.15
		c0.69-1.17,1.57-2.24,2.29-3.39c0.91-1.45,1.75-2.93,2.64-4.39c1.72-2.81,3.79-5.51,4.9-8.63C23.54,18.54,24.26,15.32,23.69,12.22z
		 M2.48,20.52c-0.41-0.5-0.49-1.14-0.61-1.76c-0.17-0.88-0.28-1.76-0.26-2.66c0-0.12,0.19-0.12,0.19,0c0.05,0.88,0.22,1.71,0.4,2.57
		c0.11,0.54,0.13,1.21,0.47,1.66C2.77,20.47,2.59,20.65,2.48,20.52z M6.39,25.84c0.05-0.05,0.1-0.1,0.15-0.15
		c0.08-0.08,0.21,0.05,0.13,0.13c-0.05,0.05-0.1,0.1-0.15,0.15C6.44,26.06,6.31,25.93,6.39,25.84z M6.64,26.31
		c0.1-0.08,0.2-0.16,0.29-0.25c0.08-0.09,0.17-0.17,0.26-0.25c0.1-0.08,0.24,0.06,0.14,0.14c-0.19,0.16-0.34,0.41-0.56,0.53
		C6.66,26.53,6.55,26.39,6.64,26.31z M6.96,26.95c0.41-0.34,0.66-0.78,0.99-1.19c0.07-0.09,0.22,0.03,0.16,0.12
		c-0.3,0.4-0.55,1-1.01,1.25C6.98,27.2,6.85,27.04,6.96,26.95z M7.11,28.02c0.25-0.47,0.58-0.9,0.87-1.34
		c0.09-0.13,0.29-0.01,0.2,0.12c-0.29,0.44-0.56,0.91-0.87,1.34C7.23,28.28,7.04,28.16,7.11,28.02z M7.55,28.86
		c0.49-1.03,1.31-1.89,1.76-2.94c0.04-0.1,0.2-0.05,0.16,0.05c-0.43,1.06-1.17,2.02-1.72,3.01C7.68,29.12,7.49,28.99,7.55,28.86z
		 M7.84,29.47c0.39-0.92,1.09-1.72,1.63-2.56c0.06-0.09,0.21-0.01,0.15,0.09c-0.51,0.86-1.05,1.7-1.58,2.55
		C7.98,29.66,7.79,29.59,7.84,29.47z M8.29,30.48c-0.11,0.06-0.21-0.06-0.16-0.16c0.47-0.97,1.22-1.78,1.67-2.77
		c0.03-0.07,0.16-0.02,0.13,0.06c-0.4,0.98-1.03,1.88-1.57,2.79C8.35,30.43,8.33,30.45,8.29,30.48z M8.46,30.93
		c0.43-0.84,0.99-1.6,1.4-2.46c0.06-0.12,0.22-0.01,0.17,0.1c-0.39,0.85-0.86,1.69-1.36,2.48C8.58,31.19,8.39,31.07,8.46,30.93z
		 M8.7,31.83c0.35-0.98,0.98-1.84,1.47-2.75c0.07-0.13,0.27-0.01,0.2,0.12c-0.48,0.91-1.02,1.78-1.45,2.73
		C8.86,32.05,8.65,31.96,8.7,31.83z M9.47,32.05c0.3-0.8,0.76-1.53,1.08-2.32c0.06-0.14,0.28-0.08,0.23,0.07
		c-0.19,0.49-0.42,0.98-0.66,1.45c-0.15,0.3-0.23,0.68-0.47,0.92C9.58,32.24,9.43,32.15,9.47,32.05z M9.66,32.74
		c0.43-0.8,0.9-1.58,1.35-2.37c0.04-0.07,0.15-0.01,0.11,0.07c-0.43,0.81-0.87,1.6-1.26,2.42C9.8,33,9.59,32.88,9.66,32.74z
		 M10.23,33.31c-0.08,0.15-0.3,0.01-0.22-0.14c0.31-0.65,0.67-1.29,1.03-1.92c0.07-0.13,0.27-0.01,0.2,0.12
		C10.89,32.02,10.57,32.67,10.23,33.31z M10.33,34.08c0.25-0.79,0.71-1.52,1.11-2.24c0.07-0.12,0.25-0.01,0.19,0.11
		c-0.39,0.73-0.73,1.47-1.08,2.22C10.49,34.3,10.29,34.21,10.33,34.08z M10.73,34.51c0.24-0.64,0.61-1.22,0.88-1.85
		c0.06-0.13,0.28-0.07,0.22,0.07c-0.26,0.63-0.54,1.29-0.88,1.88C10.88,34.73,10.68,34.64,10.73,34.51z M11.22,34.99
		c0.16-0.51,0.43-1,0.68-1.47c0.05-0.09,0.19-0.01,0.14,0.08c-0.24,0.47-0.43,0.95-0.63,1.44C11.37,35.17,11.18,35.12,11.22,34.99z
		 M11.79,35.35c0.08-0.27,0.22-0.51,0.33-0.76c0.06-0.14,0.29-0.07,0.23,0.07c-0.11,0.25-0.24,0.5-0.33,0.76
		C11.97,35.57,11.74,35.5,11.79,35.35z M12.06,36.08c0.07-0.35,0.25-0.66,0.31-1.01c0.01-0.09,0.17-0.07,0.16,0.03
		c-0.04,0.35-0.13,0.75-0.29,1.07C12.19,36.27,12.03,36.19,12.06,36.08z M12.57,36.41c-0.05,0.09-0.19,0.04-0.19-0.05
		c0.01-0.18,0.14-0.33,0.15-0.51c0.01-0.13,0.2-0.12,0.2,0C12.72,36.04,12.65,36.25,12.57,36.41z M18.32,22.1
		c-0.64,0.66-1.71,0.84-2.53,1.16c-0.1,0.04-0.17-0.13-0.07-0.17c0.8-0.36,1.76-0.56,2.45-1.14C18.28,21.86,18.42,22,18.32,22.1z
		 M18.71,21.33c-1.46,0.96-2.98,1.56-4.68,1.93c-0.05,0.01-0.07-0.06-0.02-0.07c1.62-0.53,3.14-1.14,4.63-1.99
		C18.73,21.15,18.79,21.28,18.71,21.33z M19.67,19.8c-0.56,0.47-1.08,1.02-1.73,1.36c-0.66,0.35-1.32,0.71-2.02,1
		c-1.44,0.6-2.89,0.95-4.45,0.92c-0.07,0-0.06-0.1,0-0.1c1.56-0.07,3.08-0.5,4.51-1.12c0.62-0.27,1.23-0.61,1.84-0.91
		c0.65-0.32,1.17-0.83,1.73-1.27C19.63,19.61,19.75,19.73,19.67,19.8z M21.02,15.14c-0.43,2.51-1.96,4.75-4.22,5.95
		c-2.09,1.11-4.84,1.72-7.16,1.06c-0.61-0.17-1.18-0.42-1.7-0.75c-0.24-0.11-0.46-0.25-0.65-0.43c-0.03-0.03-0.06-0.06-0.1-0.1
		c-0.27-0.22-0.52-0.45-0.75-0.71c-0.18-0.2-0.37-0.4-0.54-0.61c-0.2-0.21-0.37-0.44-0.53-0.67c-0.46-0.64-0.86-1.33-1.11-2.07
		c-0.26-0.75-0.36-1.53-0.34-2.31c-0.02-0.23-0.05-0.47-0.07-0.7c-0.11-1.11,0.15-2.36,0.71-3.33C4.94,9.84,5.39,9.27,5.85,8.7
		c0.39-0.47,0.77-0.91,1.28-1.25c1.07-0.71,2.35-1.15,3.62-1.31c2.73-0.36,5.71,0.51,7.85,2.25c0.9,0.73,1.79,1.67,2.19,2.78
		C21.23,12.4,21.24,13.86,21.02,15.14z"/>
	<g>
		<path d="M20.92,5.26c-1.95-1.76-6.3-3.72-9.49-3.11l0,0C8.84,2.39,6.33,3.95,4.77,5.39C2.83,7.17,1.41,9.61,0.92,12.2
			c-0.57,2.99,0.09,6.13,1.03,8.98c1.08,3.26,3.14,6.06,5,8.91c0.97,1.49,1.9,3,2.88,4.48c0.91,1.38,2.05,2.64,2.87,4.07
			c0.03,0.07,0.03,0.06,0.03,0.04c0,0,0,0,0,0c0.06,0.38,0.38,0.42,0.58,0.1c0,0,0.01-0.01,0.01-0.01c0.81-1.44,1.9-2.9,2.8-4.29
			c0.96-1.49,1.89-3.01,2.84-4.51c1.83-2.87,3.87-5.69,4.92-8.96c0.92-2.86,1.55-6,0.95-8.99C24.31,9.45,22.87,7.02,20.92,5.26z
			 M22.89,21.46c-1.11,3.12-3.19,5.82-4.9,8.63c-0.89,1.46-1.73,2.94-2.64,4.39c-0.73,1.15-1.6,2.22-2.29,3.39l-0.06,0.15l-0.04-0.1
			c-0.7-1.17-1.59-2.23-2.32-3.37c-0.92-1.44-1.78-2.92-2.69-4.36c-1.74-2.79-3.84-5.47-4.99-8.58c-1.07-2.91-1.81-6.13-1.28-9.23
			c0.46-2.71,2.09-5.21,4.19-6.96c1.59-1.33,3.55-2.07,5.63-2.34l0,0c0.03-0.01,0.06-0.01,0.09-0.02c0.7-0.09,1.41-0.12,2.13-0.11
			c2.21,0.14,4.51,1.03,6.12,2.35c2.11,1.72,3.76,4.21,4.25,6.92C24.64,15.32,23.93,18.54,22.89,21.46z"/>
		<path d="M18.98,8.39c-2.14-1.73-5.12-2.61-7.85-2.25c-1.26,0.17-2.55,0.6-3.62,1.31C7.01,7.79,6.62,8.23,6.24,8.7
			c-0.46,0.56-0.91,1.14-1.28,1.77c-0.56,0.97-0.82,2.22-0.71,3.33c0.02,0.23,0.04,0.47,0.07,0.7c-0.02,0.78,0.08,1.56,0.34,2.31
			c0.25,0.74,0.65,1.43,1.11,2.07c0.16,0.23,0.33,0.46,0.53,0.67c0.18,0.21,0.36,0.41,0.54,0.61c0.24,0.25,0.49,0.49,0.75,0.71
			c0.03,0.03,0.06,0.06,0.1,0.1c0.19,0.19,0.41,0.32,0.65,0.43c0.52,0.32,1.09,0.58,1.7,0.75c2.32,0.66,5.07,0.05,7.16-1.06
			c2.26-1.2,3.79-3.44,4.22-5.95c0.22-1.27,0.2-2.74-0.24-3.97C20.77,10.06,19.89,9.12,18.98,8.39z M20.69,14.85
			c-0.31,2.72-2.16,4.92-4.61,6.01c-2.1,0.93-4.68,1.25-6.81,0.31c-0.23-0.14-0.46-0.26-0.69-0.39c-0.3-0.17-0.5-0.42-0.72-0.68
			c-0.46-0.55-1.07-0.99-1.47-1.59c-0.76-1.17-1.14-2.53-1.28-3.9c-0.05-0.53-0.13-1.03-0.1-1.54c0.62-2.86,2.74-5.27,5.64-5.88
			c1.01-0.21,2.06-0.19,3.08-0.11c0.05,0,0.09-0.02,0.11-0.05c1.18,0.19,2.32,0.6,3.38,1.17c1.15,0.62,2.22,1.54,2.91,2.66
			C20.83,12,20.84,13.55,20.69,14.85z"/>
		<path d="M19.93,19.68c-0.56,0.45-1.08,0.95-1.73,1.27c-0.61,0.3-1.22,0.63-1.84,0.91c-1.43,0.63-2.94,1.06-4.51,1.12
			c-0.07,0-0.07,0.1,0,0.1c1.56,0.04,3.02-0.32,4.45-0.92c0.69-0.29,1.35-0.65,2.02-1c0.65-0.34,1.17-0.9,1.73-1.36
			C20.14,19.73,20.02,19.61,19.93,19.68z"/>
		<path d="M19.03,21.2c-1.48,0.85-3.01,1.46-4.63,1.99c-0.05,0.02-0.03,0.08,0.02,0.07c1.7-0.37,3.22-0.97,4.68-1.93
			C19.18,21.28,19.11,21.15,19.03,21.2z"/>
		<path d="M18.55,21.95c-0.68,0.58-1.65,0.78-2.45,1.14c-0.1,0.04-0.03,0.21,0.07,0.17c0.82-0.31,1.89-0.5,2.53-1.16
			C18.81,22,18.66,21.86,18.55,21.95z"/>
		<path d="M9.7,25.92c-0.46,1.05-1.27,1.9-1.76,2.94c-0.06,0.13,0.13,0.26,0.2,0.12c0.55-1,1.29-1.96,1.72-3.01
			C9.9,25.87,9.74,25.83,9.7,25.92z"/>
		<path d="M9.85,26.92c-0.53,0.84-1.24,1.63-1.63,2.56c-0.05,0.12,0.13,0.19,0.2,0.09c0.53-0.85,1.06-1.7,1.58-2.55
			C10.06,26.91,9.91,26.82,9.85,26.92z"/>
		<path d="M10.19,27.54c-0.45,0.99-1.2,1.8-1.67,2.77c-0.05,0.1,0.05,0.22,0.16,0.16c0.04-0.02,0.06-0.05,0.07-0.09
			c0.54-0.91,1.17-1.8,1.57-2.79C10.35,27.52,10.23,27.47,10.19,27.54z"/>
		<path d="M10.24,28.47c-0.41,0.85-0.97,1.62-1.4,2.46c-0.07,0.14,0.12,0.26,0.21,0.13c0.5-0.79,0.97-1.63,1.36-2.48
			C10.46,28.46,10.3,28.36,10.24,28.47z"/>
		<path d="M10.55,29.08c-0.49,0.91-1.12,1.77-1.47,2.75c-0.05,0.13,0.17,0.23,0.23,0.1c0.42-0.94,0.97-1.81,1.45-2.73
			C10.82,29.07,10.63,28.94,10.55,29.08z"/>
		<path d="M10.51,31.24c0.24-0.47,0.46-0.96,0.66-1.45c0.06-0.14-0.17-0.2-0.23-0.07c-0.32,0.79-0.78,1.53-1.08,2.32
			c-0.04,0.11,0.11,0.19,0.18,0.11C10.28,31.91,10.36,31.54,10.51,31.24z"/>
		<path d="M11.4,30.38c-0.45,0.79-0.92,1.57-1.35,2.37c-0.07,0.13,0.14,0.26,0.2,0.12c0.39-0.82,0.83-1.62,1.26-2.42
			C11.54,30.37,11.44,30.31,11.4,30.38z"/>
		<path d="M11.43,31.26c-0.36,0.63-0.72,1.26-1.03,1.92c-0.07,0.15,0.14,0.29,0.22,0.14c0.34-0.64,0.66-1.29,1-1.93
			C11.69,31.25,11.5,31.13,11.43,31.26z"/>
		<path d="M11.83,31.84c-0.4,0.72-0.86,1.45-1.11,2.24c-0.04,0.13,0.16,0.23,0.22,0.1c0.35-0.75,0.69-1.49,1.08-2.22
			C12.08,31.83,11.9,31.72,11.83,31.84z"/>
		<path d="M11.99,32.66c-0.27,0.62-0.64,1.21-0.88,1.85c-0.05,0.13,0.15,0.21,0.22,0.1c0.34-0.59,0.62-1.25,0.88-1.88
			C12.27,32.59,12.05,32.53,11.99,32.66z"/>
		<path d="M12.29,33.53c-0.25,0.47-0.52,0.96-0.68,1.47c-0.04,0.13,0.14,0.17,0.19,0.06c0.2-0.49,0.38-0.97,0.63-1.44
			C12.48,33.52,12.34,33.43,12.29,33.53z"/>
		<path d="M12.5,34.59c-0.11,0.25-0.25,0.5-0.33,0.76c-0.05,0.15,0.19,0.22,0.23,0.07c0.08-0.27,0.21-0.51,0.33-0.76
			C12.79,34.51,12.56,34.45,12.5,34.59z"/>
		<path d="M12.75,35.07c-0.06,0.35-0.24,0.67-0.31,1.01c-0.02,0.11,0.14,0.2,0.19,0.08c0.15-0.32,0.25-0.71,0.29-1.07
			C12.92,35,12.77,34.98,12.75,35.07z"/>
		<path d="M12.91,35.85c-0.01,0.18-0.13,0.33-0.15,0.51c-0.01,0.1,0.14,0.14,0.19,0.05c0.08-0.17,0.16-0.37,0.16-0.56
			C13.11,35.73,12.92,35.73,12.91,35.85z"/>
		<path d="M8.37,26.68c-0.3,0.44-0.63,0.87-0.87,1.34c-0.07,0.14,0.12,0.26,0.21,0.13c0.31-0.43,0.58-0.9,0.87-1.34
			C8.66,26.68,8.46,26.56,8.37,26.68z"/>
		<path d="M8.49,25.89c0.07-0.09-0.08-0.21-0.16-0.12C8,26.17,7.75,26.61,7.34,26.95c-0.1,0.09,0.02,0.24,0.14,0.18
			C7.94,26.89,8.19,26.29,8.49,25.89z"/>
		<path d="M7.71,25.94c0.1-0.08-0.04-0.22-0.14-0.14c-0.09,0.08-0.18,0.16-0.26,0.25c-0.09,0.09-0.19,0.17-0.29,0.25
			c-0.09,0.08,0.02,0.22,0.12,0.17C7.37,26.35,7.52,26.11,7.71,25.94z"/>
		<path d="M6.93,25.7c-0.05,0.05-0.1,0.1-0.15,0.15c-0.08,0.08,0.04,0.21,0.13,0.13c0.05-0.05,0.1-0.1,0.15-0.15
			C7.13,25.75,7.01,25.62,6.93,25.7z"/>
		<path d="M11.36,37.37c-0.48-0.6-1-1.17-1.43-1.81C9.55,35,9.2,34.42,8.87,33.84c-0.13-0.23-0.31-0.45-0.47-0.67
			c-0.24-0.32-0.62-0.59-0.75-0.99c-0.02-0.06-0.1-0.03-0.09,0.02c0.1,0.54,0.59,0.98,0.89,1.42c0.44,0.67,0.8,1.39,1.24,2.07
			c0.36,0.56,0.8,1.07,1.21,1.59c0.47,0.58,0.89,1.21,1.38,1.78c0.14,0.16,0.38-0.07,0.24-0.23C12.1,38.36,11.75,37.85,11.36,37.37z
			"/>
		<path d="M12.12,39.29c-0.14-0.22-0.28-0.43-0.42-0.64c-0.31-0.45-0.74-0.8-1.11-1.19C10.16,37.01,9.77,36.5,9.4,36
			c-0.29-0.4-0.71-0.89-0.87-1.36c-0.02-0.07-0.13-0.04-0.11,0.03c0.12,0.42,0.42,0.72,0.6,1.11c0.25,0.51,0.61,0.98,0.96,1.43
			c0.44,0.56,0.99,1.04,1.41,1.61c0.3,0.41,0.47,0.93,0.8,1.3c0.16,0.17,0.42-0.08,0.26-0.25C12.3,39.7,12.24,39.48,12.12,39.29z"/>
		<path d="M20.75,28c-0.56,0.9-1.23,1.73-1.81,2.63c-0.6,0.92-1.19,1.84-1.8,2.76c-1.24,1.87-2.61,3.63-3.62,5.64
			c-0.1,0.2,0.19,0.38,0.29,0.18c0.99-1.95,2.32-3.65,3.51-5.47c0.6-0.91,1.19-1.84,1.74-2.78c0.57-0.98,1.25-1.89,1.82-2.86
			C20.94,28,20.8,27.91,20.75,28z"/>
		<path d="M18.37,32.72c-0.16,0.59-0.77,1.2-1.13,1.68c-0.52,0.69-1.02,1.38-1.48,2.11c-0.43,0.68-0.83,1.37-1.26,2.06
			c-0.42,0.67-0.91,1.34-1.24,2.06c-0.11,0.24,0.22,0.38,0.32,0.14c0.33-0.77,0.88-1.49,1.32-2.2c0.46-0.74,0.89-1.49,1.34-2.23
			c0.45-0.73,0.97-1.41,1.45-2.13c0.28-0.42,0.78-0.96,0.78-1.49C18.48,32.67,18.39,32.66,18.37,32.72z"/>
		<path d="M13.96,7.33c-1.07-0.04-2.01-0.08-3.06,0.18C9.99,7.74,9.11,8.13,8.33,8.65c-0.73,0.49-1.3,1.13-1.76,1.87
			c-0.42,0.7-0.86,1.61-0.91,2.43c0,0.07,0.11,0.09,0.12,0.02c0.16-0.8,0.64-1.59,1.06-2.29c0.45-0.75,1.09-1.35,1.81-1.83
			c0.71-0.47,1.52-0.77,2.34-1c0.51-0.14,1.03-0.21,1.55-0.24c0.47-0.03,0.95,0.07,1.42,0.07C14.18,7.68,14.18,7.34,13.96,7.33z"/>
		<path d="M13.09,7.99c-1.36-0.22-2.97,0.33-4.11,1.04c-0.9,0.56-1.96,1.64-2.04,2.75c0,0.06,0.09,0.08,0.11,0.02
			c0.3-1.09,1.29-2.01,2.24-2.58c0.57-0.34,1.21-0.58,1.86-0.74c0.64-0.16,1.3-0.12,1.95-0.24C13.21,8.23,13.22,8.02,13.09,7.99z"/>
		<path d="M11.89,9c-0.82,0.07-1.58,0.34-2.31,0.71c-0.55,0.28-1.17,0.69-1.29,1.33c-0.02,0.1,0.12,0.14,0.15,0.04
			c0.16-0.57,0.78-0.89,1.28-1.12c0.68-0.32,1.41-0.56,2.16-0.61C12.11,9.34,12.12,8.98,11.89,9z"/>
		<path d="M5.22,4.25c1.69-1.36,3.53-2.12,5.7-2.35c1.13-0.12,2.28-0.16,3.42-0.03c0.59,0.07,1.16,0.22,1.73,0.36
			c0.44,0.11,1.01,0.22,1.38,0.49c0.2,0.15,0.39-0.18,0.2-0.32c-0.3-0.22-0.73-0.32-1.08-0.42c-0.6-0.17-1.22-0.32-1.83-0.42
			c-1.33-0.2-2.68-0.12-4.01,0.04C9.64,1.73,8.59,2.01,7.59,2.45C6.71,2.83,5.7,3.38,5.12,4.17C5.07,4.23,5.17,4.29,5.22,4.25z"/>
		<path d="M7.29,1.95c1.23-0.32,2.36-0.71,3.64-0.84c1.37-0.14,2.63,0.01,3.97,0.27c0.2,0.04,0.29-0.26,0.09-0.3
			c-1.29-0.3-2.54-0.4-3.85-0.25C10.52,0.89,9.9,0.98,9.3,1.14c-0.7,0.18-1.35,0.52-2.04,0.74C7.22,1.9,7.24,1.97,7.29,1.95z"/>
		<path d="M9.32,0.66c0.62-0.08,1.2-0.21,1.83-0.21c0.53,0,1.08-0.14,1.6,0.06c0.19,0.07,0.29-0.24,0.09-0.31
			c-0.56-0.19-1.11-0.03-1.68-0.02C10.49,0.2,9.93,0.38,9.3,0.56C9.23,0.58,9.26,0.67,9.32,0.66z"/>
		<path d="M0.75,18.62c-0.1-0.6-0.32-1.17-0.38-1.78c-0.11-1.15-0.29-2.33-0.16-3.49c0.01-0.05-0.07-0.06-0.08-0.01
			c-0.32,1.22-0.17,2.45-0.07,3.69c0.05,0.57,0.27,1.11,0.37,1.67c0.07,0.41,0.1,0.84,0.36,1.2c0.13,0.17,0.42,0.01,0.29-0.16
			C0.84,19.41,0.81,19,0.75,18.62z"/>
		<path d="M2.58,18.68c-0.17-0.86-0.35-1.69-0.4-2.57c-0.01-0.12-0.19-0.13-0.19,0c-0.02,0.9,0.09,1.77,0.26,2.66
			c0.12,0.62,0.2,1.25,0.61,1.76c0.11,0.13,0.29-0.05,0.19-0.18C2.71,19.89,2.69,19.22,2.58,18.68z"/>
	</g>
</g>
<text transform="matrix(1 0 0 1 9.1629 19.6032)" class="st2 st3">6</text>
</svg>
