<?xml version="1.0" encoding="utf-8"?>
<!-- Generator: Adobe Illustrator 24.2.3, SVG Export Plug-In . SVG Version: 6.00 Build 0)  -->
<svg version="1.1" id="Camada_1" xmlns="http://www.w3.org/2000/svg" xmlns:xlink="http://www.w3.org/1999/xlink" x="0px" y="0px"
	 viewBox="0 0 25 41" style="enable-background:new 0 0 25 41;" xml:space="preserve">
<style type="text/css">
	.st0{fill:#2D5980;}
	.st1{fill:#B2B7BB;}
	.st2{fill:#50841E;}
	.st3{opacity:0.2;fill:#50841E;}
	.st4{fill:#7AC142;}
	.st5{fill:#66A331;}
	.st6{opacity:0.1;fill:#66A331;}
	.st7{opacity:0.4;fill:#66A331;}
	.st8{opacity:0.2;fill:#66A331;}
	.st9{fill:#002A5C;}
</style>
<g>
	<g id="Pin_1_">
		<g id="XMLID_3554_">
			<g id="XMLID_3555_">
				<path id="XMLID_3556_" class="st0" d="M21.71,3.32C21.71,3.32,21.7,3.32,21.71,3.32c-0.04-0.03-0.09-0.05-0.13-0.08l-3.86-2.32
					C16.86,0.32,15.84,0,14.71,0C13.36,0,12,0.51,10.39,1.44C4.79,4.68,0,14.04,0,20.19v1.7c0,7.45,9.37,16.54,9.37,16.54l3.89,2.35
					c0.01,0.01,0.01,0.01,0.02,0.01c-0.13-0.16,4.13-6.65,8.14-19.32C25.86,7.44,21.79,3.4,21.71,3.32z M15.15,25.59
					c-3.17,1.92-5.83,0.91-6.59-2.18c-1.46-0.21-2.51-1.38-2.83-3.3C5.32,13.9,8.48,8.96,12.99,6.96c1.93-0.73,3.55-0.21,4.41,1.31
					c2.65-0.48,4.55,1.42,4.55,5C21.95,17.8,18.91,23.32,15.15,25.59z"/>
			</g>
		</g>
		<path id="XMLID_3553_" class="st1" d="M21.95,13.27c0,4.53-3.04,10.05-6.8,12.32c-3.17,1.92-5.83,0.91-6.59-2.18
			c0.95,0.14,2.08-0.12,3.29-0.86c3.44-2.07,6.23-7.13,6.23-11.28c0-1.23-0.25-2.25-0.68-3.01C20.05,7.79,21.95,9.69,21.95,13.27z"
			/>
		<g id="XMLID_3526_">
			<g id="XMLID_3550_">
				<polygon id="XMLID_3552_" class="st2" points="9.85,22.97 12.01,24.28 12.01,19.9 9.85,18.6 				"/>
				<polygon id="XMLID_3551_" class="st3" points="9.85,22.97 12.01,24.28 12.01,19.9 9.85,18.6 				"/>
			</g>
			<polygon id="XMLID_3549_" class="st4" points="20.15,14.99 15.14,12.54 10.14,21.03 12.01,19.9 12.01,24.28 14.37,22.85 
				14.37,19.99 15.92,19.06 15.92,21.91 18.29,20.48 18.29,16.11 			"/>
			<g id="XMLID_3546_">
				<polygon id="XMLID_3548_" class="st5" points="12.98,11.23 15.14,12.54 10.14,21.03 7.98,19.73 				"/>
				<polygon id="XMLID_3547_" class="st6" points="12.98,11.23 15.14,12.54 10.14,21.03 7.98,19.73 				"/>
			</g>
			<g id="XMLID_3530_">
				<polygon id="XMLID_3532_" class="st5" points="12.98,11.23 15.14,12.54 20.15,14.99 17.99,13.69 				"/>
				<polygon id="XMLID_3531_" class="st7" points="12.98,11.23 15.14,12.54 20.15,14.99 17.99,13.69 				"/>
			</g>
			<g id="XMLID_3527_">
				<polygon id="XMLID_3529_" class="st5" points="14.37,22.85 15.92,21.91 15.92,19.06 14.37,19.99 				"/>
				<polygon id="XMLID_3528_" class="st8" points="14.37,22.85 15.92,21.91 15.92,19.06 14.37,19.99 				"/>
			</g>
		</g>
		<g id="XMLID_3521_">
			<path id="XMLID_3522_" class="st9" d="M21.71,3.32C21.71,3.32,21.7,3.32,21.71,3.32c-0.04-0.03-0.09-0.05-0.13-0.08
				c-1.87-1.1-4.38-0.95-7.13,0.7c-4.15,2.51-7.73,7.77-9.43,13.29c-0.67,2.19-0.96,3.35-0.96,5.46v1.7
				c0,5.74,6.12,13.46,8.99,16.22c0.07,0.07,0.14,0.12,0.21,0.16c0.01,0.01,0.01,0.01,0.02,0.01c0.69,0.45,1.63,0.19,2-0.61
				c2.47-5.28,9.66-21.2,9.66-27.37v-1.7C24.94,7.28,23.7,4.57,21.71,3.32z M8.56,23.41c-0.04-0.16-0.07-0.32-0.1-0.49
				c-0.08-0.44-0.12-0.92-0.12-1.43c0-4.53,3.04-10.05,6.8-12.32c0.42-0.25,0.84-0.46,1.24-0.61c0.35-0.13,0.69-0.23,1.01-0.29
				c2.65-0.48,4.55,1.42,4.55,5c0,4.53-3.04,10.05-6.8,12.32C11.98,27.5,9.31,26.5,8.56,23.41z"/>
		</g>
	</g>
</g>
</svg>
