<?xml version="1.0" encoding="utf-8"?>
<!-- Generator: Adobe Illustrator 24.2.3, SVG Export Plug-In . SVG Version: 6.00 Build 0)  -->
<svg version="1.1" id="Camada_1" xmlns="http://www.w3.org/2000/svg" xmlns:xlink="http://www.w3.org/1999/xlink" x="0px" y="0px"
	 viewBox="0 0 841.89 443.56" style="enable-background:new 0 0 841.89 443.56;" xml:space="preserve">
<style type="text/css">
	.st0{fill:#B2B7BB;}
	.st1{fill:#ECECEC;}
	.st2{fill:#E1E1E1;}
	.st3{fill:#F5F5F5;}
	.st4{fill:#002A5C;}
	.st5{fill:#7AC142;}
	.st6{fill:#1A2E35;}
	.st7{fill:#375A64;}
	.st8{fill:#2D5980;}
	.st9{fill:#50841E;}
	.st10{opacity:0.2;fill:#50841E;}
	.st11{fill:#66A331;}
	.st12{opacity:0.1;fill:#66A331;}
	.st13{opacity:0.4;fill:#66A331;}
	.st14{opacity:0.2;fill:#66A331;}
</style>
<rect class="st0" width="841.89" height="443.56"/>
<g>
	<g>
		<g>
			<path class="st1" d="M366.58,416.02c-1-11.4,4.65-23.15,14.18-29.5c9.53-6.34,22.54-7.02,32.68-1.71
				c2.46-6.59,4.99-13.29,9.35-18.81c4.36-5.51,10.95-9.74,17.98-9.49v59.5H366.58z"/>
		</g>
		<g>
			<g>
				<g>
					<polygon class="st1" points="171.25,185.83 133.35,262.3 144.67,262.73 112.55,323.49 129.42,323.49 103.1,377.47 
						250.2,377.47 217.81,323.49 233.33,322.81 202.29,262.08 213.76,261.41 					"/>
				</g>
				<g>
					<g>
						<path class="st2" d="M177.66,274.53c0.19,0-0.14,32.38-0.72,72.32c-0.59,39.95-1.21,72.32-1.4,72.31
							c-0.19,0,0.14-32.38,0.72-72.32C176.85,306.91,177.48,274.53,177.66,274.53z"/>
					</g>
				</g>
			</g>
			<g>
				<g>
					<path class="st2" d="M195.69,292.36c0.07,0.06-0.86,1.41-2.47,3.53c-1.6,2.12-3.89,5-6.46,8.13c-2.52,3.05-4.8,5.8-6.61,8
						c-1.7,2.04-2.76,3.29-2.84,3.24c-0.07-0.05,0.86-1.41,2.47-3.53c1.6-2.12,3.89-5,6.46-8.13c2.52-3.05,4.8-5.8,6.61-8
						C194.55,293.55,195.61,292.3,195.69,292.36z"/>
				</g>
			</g>
			<g>
				<g>
					<path class="st2" d="M177.31,315.26c-0.11,0.15-3.83-2.56-8.31-6.04c-4.47-3.49-8.01-6.43-7.89-6.58
						c0.11-0.15,3.83,2.56,8.31,6.05C173.89,312.17,177.42,315.11,177.31,315.26z"/>
				</g>
			</g>
			<g>
				<g>
					<path class="st2" d="M176.3,352.77c-0.07,0.07-1.1-0.8-2.77-2.21c-1.66-1.41-3.96-3.36-6.53-5.46c-2.58-2.1-4.95-3.95-6.67-5.3
						c-1.72-1.34-2.78-2.18-2.72-2.26c0.05-0.07,1.21,0.63,3,1.88c1.8,1.25,4.22,3.05,6.81,5.16c2.59,2.11,4.84,4.12,6.42,5.63
						C175.44,351.71,176.36,352.7,176.3,352.77z"/>
				</g>
			</g>
			<g>
				<g>
					<path class="st2" d="M197.26,329.58c0.04,0.03-0.21,0.4-0.68,1.03c-0.47,0.64-1.19,1.54-2.1,2.62
						c-1.82,2.18-4.47,5.06-7.46,8.17c-2.99,3.12-5.69,5.93-7.59,8.02c-1.91,2.08-3.05,3.4-3.13,3.34
						c-0.04-0.03,0.21-0.39,0.68-1.03c0.47-0.64,1.19-1.54,2.1-2.62c1.82-2.18,4.47-5.06,7.46-8.17c2.99-3.11,5.69-5.93,7.59-8.02
						C196.04,330.84,197.18,329.52,197.26,329.58z"/>
				</g>
			</g>
		</g>
		<g>
			<g>
				<polygon class="st2" points="479.81,272.84 633.5,272.84 662.22,232.07 692.32,273.99 727.69,273.43 689.56,222.08 
					518.2,222.79 				"/>
			</g>
			<g>
				<polygon class="st3" points="556.67,273.43 556.67,416.37 710.14,416.37 710.14,273.43 692.55,273.43 662.22,232.07 
					633.41,272.8 				"/>
			</g>
			<g>
				<rect x="578.35" y="354.39" class="st2" width="35.9" height="61.97"/>
			</g>
			<g>
				<rect x="635.77" y="352.65" class="st4" width="56.55" height="35.03"/>
			</g>
			<g>
				<rect x="651.45" y="352.65" class="st1" width="1.3" height="35.36"/>
			</g>
			<g>
				<rect x="674.97" y="352.65" class="st1" width="1.3" height="35.36"/>
			</g>
			<g>
				<rect x="652.1" y="370.75" class="st1" width="23.52" height="1.3"/>
			</g>
			<g>
				<rect x="635.77" y="282.54" class="st2" width="56.55" height="35.03"/>
			</g>
			<g>
				<rect x="651.45" y="282.54" class="st1" width="1.3" height="35.36"/>
			</g>
			<g>
				<rect x="674.97" y="282.54" class="st1" width="1.3" height="35.36"/>
			</g>
			<g>
				<rect x="652.1" y="300.63" class="st1" width="23.52" height="1.3"/>
			</g>
			<g>
				<rect x="574.84" y="282.85" class="st5" width="35.67" height="33.77"/>
			</g>
			<g>
				<rect x="494.38" y="273.43" class="st2" width="62.29" height="142.94"/>
			</g>
			<g>
				<rect x="592.03" y="282.85" class="st1" width="1.3" height="33.77"/>
			</g>
			<g>
				<rect x="574.84" y="299.92" class="st1" width="35.67" height="1.3"/>
			</g>
			<g>
				<circle class="st2" cx="662.13" cy="259.35" r="7.56"/>
			</g>
			<g>
				<polygon class="st3" points="608.19,250.08 617.73,238.31 617.73,209.99 597.75,209.99 597.75,250.3 				"/>
			</g>
			<g>
				<polygon class="st1" points="608.19,250.08 608.19,209.99 617.73,209.99 617.73,238.31 				"/>
			</g>
			<g>
				<rect x="595.53" y="205.82" class="st1" width="23.56" height="4.17"/>
			</g>
			<g>
				<rect x="440.77" y="335.96" class="st3" width="115.9" height="80.41"/>
			</g>
			<g>
				<rect x="440.77" y="335.96" class="st2" width="72.56" height="80.41"/>
			</g>
			<g>
				<rect x="455.07" y="361.88" class="st3" width="47.46" height="54.35"/>
			</g>
			<g>
				<rect x="519.71" y="361.66" class="st1" width="30.57" height="7.79"/>
			</g>
			<g>
				<polygon class="st1" points="479.81,272.84 479.81,276.98 633.41,276.98 633.41,272.8 				"/>
			</g>
			<g>
				<polygon class="st1" points="633.41,276.98 662.13,236.66 662.22,232.07 633.5,272.84 				"/>
			</g>
			<g>
				<rect x="692.55" y="273.43" class="st1" width="34.4" height="2.67"/>
			</g>
			<g>
				<rect x="589.32" y="344.9" class="st2" width="12.69" height="4.83"/>
			</g>
		</g>
		<g>
			<g>
				<path class="st6" d="M792.33,416.37c0,0.19-174.32,0.34-389.3,0.34c-215.06,0-389.34-0.15-389.34-0.34
					c0-0.19,174.28-0.34,389.34-0.34C618.01,416.03,792.33,416.18,792.33,416.37z"/>
			</g>
		</g>
		<g>
			<g>
				<g>
					<polygon class="st7" points="257.06,271.44 233.54,318.89 240.56,319.16 220.63,356.87 231.1,356.87 214.77,390.37 
						306.06,390.37 285.96,356.87 295.59,356.45 276.33,318.76 283.45,318.34 					"/>
				</g>
				<g>
					<g>
						<path class="st6" d="M261.04,326.49c0.19,0,0.04,20.1-0.32,44.88c-0.36,24.79-0.81,44.88-1,44.88
							c-0.19,0-0.04-20.1,0.32-44.89C260.41,346.58,260.86,326.49,261.04,326.49z"/>
					</g>
				</g>
			</g>
			<g>
				<g>
					<path class="st6" d="M272.23,338.69c0.07,0.05-0.44,0.87-1.41,2.08c-0.97,1.21-2.43,2.79-4.1,4.45
						c-1.67,1.66-3.17,3.16-4.22,4.29c-1.05,1.12-1.69,1.83-1.77,1.77c-0.07-0.05,0.44-0.87,1.41-2.08c0.97-1.21,2.43-2.79,4.1-4.45
						c1.67-1.66,3.17-3.16,4.22-4.29C271.52,339.34,272.15,338.63,272.23,338.69z"/>
				</g>
			</g>
			<g>
				<g>
					<path class="st6" d="M260.82,351.77c-0.11,0.15-2.46-1.49-5.23-3.65c-2.78-2.16-4.93-4.04-4.82-4.18
						c0.11-0.15,2.46,1.49,5.23,3.65C258.78,349.74,260.93,351.62,260.82,351.77z"/>
				</g>
			</g>
			<g>
				<g>
					<path class="st6" d="M260.19,375.04c-0.13,0.14-2.65-2.06-5.85-4.66c-3.19-2.61-5.86-4.63-5.75-4.79
						c0.1-0.15,2.96,1.64,6.17,4.27C257.99,372.48,260.32,374.91,260.19,375.04z"/>
				</g>
			</g>
			<g>
				<g>
					<path class="st6" d="M273.2,360.65c0.17,0.13-2.51,3.6-6.26,7.43c-1.75,1.83-3.34,3.49-4.74,4.95
						c-1.2,1.27-1.94,2.07-2.01,2.01c-0.17-0.13,2.51-3.6,6.26-7.43c1.75-1.83,3.34-3.49,4.74-4.95
						C272.39,361.39,273.13,360.59,273.2,360.65z"/>
				</g>
			</g>
		</g>
		<g>
			<g id="Pin_2_">
				<g id="XMLID_21_">
					<g id="XMLID_22_">
						<path id="XMLID_23_" class="st8" d="M462.46,51.27c0-0.01-0.01-0.01-0.01-0.01c-0.33-0.19-0.71-0.43-1.05-0.62l-32.67-18.76
							c-7.33-4.91-15.95-7.48-25.52-7.48c-11.43,0-22.97,4.14-36.54,11.66c-47.45,26.29-88,102.1-88,151.88v13.77
							c0,60.34,79.35,133.96,79.35,133.96l32.9,19.01c0.05,0.06,0.09,0.06,0.15,0.06c-1.1-1.3,34.96-53.9,68.96-156.52
							C497.67,84.63,463.17,51.92,462.46,51.27z M406.93,231.64c-26.86,15.52-49.39,7.39-55.76-17.65
							c-12.32-1.73-21.23-11.17-23.97-26.73c-3.46-50.24,23.24-90.28,61.46-106.53c16.34-5.95,30.04-1.7,37.36,10.6
							c22.46-3.85,38.52,11.53,38.52,40.52C464.54,168.58,438.76,213.28,406.93,231.64z"/>
					</g>
				</g>
				<path id="XMLID_20_" class="st0" d="M464.54,131.86c0,36.72-25.78,81.42-57.61,99.78c-26.86,15.52-49.39,7.39-55.76-17.65
					c8.08,1.16,17.63-1,27.88-6.93c29.15-16.8,52.76-57.72,52.76-91.34c0-9.98-2.08-18.2-5.78-24.38
					C448.48,87.49,464.54,102.87,464.54,131.86z"/>
				<g id="XMLID_6_">
					<g id="XMLID_17_">
						<polygon id="XMLID_19_" class="st9" points="362.03,210.48 380.33,221.04 380.33,185.63 362.03,175.07 						"/>
						<polygon id="XMLID_18_" class="st10" points="362.03,210.48 380.33,221.04 380.33,185.63 362.03,175.07 						"/>
					</g>
					<polygon id="XMLID_16_" class="st5" points="449.28,145.81 406.91,125.95 364.53,194.74 380.33,185.63 380.33,221.04 
						400.34,209.48 400.34,186.32 413.45,178.75 413.45,201.91 433.5,190.32 433.5,154.91 					"/>
					<g id="XMLID_13_">
						<polygon id="XMLID_15_" class="st11" points="388.61,115.39 406.91,125.95 364.53,194.74 346.24,184.19 						"/>
						<polygon id="XMLID_14_" class="st12" points="388.61,115.39 406.91,125.95 364.53,194.74 346.24,184.19 						"/>
					</g>
					<g id="XMLID_10_">
						<polygon id="XMLID_12_" class="st11" points="388.61,115.39 406.91,125.95 449.28,145.81 430.99,135.25 						"/>
						<polygon id="XMLID_11_" class="st13" points="388.61,115.39 406.91,125.95 449.28,145.81 430.99,135.25 						"/>
					</g>
					<g id="XMLID_7_">
						<polygon id="XMLID_9_" class="st11" points="400.34,209.48 413.45,201.91 413.45,178.75 400.34,186.32 						"/>
						<polygon id="XMLID_8_" class="st14" points="400.34,209.48 413.45,201.91 413.45,178.75 400.34,186.32 						"/>
					</g>
				</g>
				<g id="XMLID_1_">
					<path id="XMLID_2_" class="st4" d="M462.46,51.27c0-0.01-0.01-0.01-0.01-0.01c-0.33-0.19-0.71-0.43-1.05-0.62
						c-15.86-8.91-37.06-7.72-60.34,5.71c-35.11,20.3-65.49,62.92-79.88,107.64c-5.71,17.72-8.12,27.1-8.12,44.24v13.76
						c0,46.49,51.84,109.03,76.08,131.36c0.57,0.53,1.15,0.96,1.77,1.33c0.05,0.06,0.09,0.06,0.15,0.06
						c5.86,3.62,13.81,1.57,16.95-4.91c20.9-42.81,81.83-171.74,81.83-221.7v-13.76C489.84,83.37,479.35,61.41,462.46,51.27z
						 M351.17,213.99c-0.34-1.28-0.63-2.61-0.87-3.99c-0.68-3.59-0.99-7.48-0.99-11.62c0-36.72,25.78-81.41,57.62-99.77
						c3.58-2.05,7.11-3.72,10.51-4.96c2.95-1.07,5.81-1.85,8.58-2.32c22.46-3.85,38.52,11.53,38.52,40.52
						c0,36.72-25.78,81.42-57.61,99.78C380.07,247.16,357.54,239.03,351.17,213.99z"/>
				</g>
			</g>
		</g>
	</g>
	<g>
		<g>
			<path class="st4" d="M498.72,136.01c0-4.85,4.09-8.96,8.93-8.96c2.24,0.03,4.22,0.92,6.03,2.66l-2,2.72
				c-1.17-1.15-2.58-1.86-4.06-1.86c-2.76,0-5.4,2.45-5.4,5.46c0,3.06,2.73,5.43,5.39,5.43c1.58,0,2.94-0.84,4.09-1.96l1.98,2.8
				c-1.51,1.5-3.36,2.63-5.96,2.63C502.75,144.93,498.72,140.85,498.72,136.01z"/>
			<path class="st4" d="M526.07,142.2h-6.88l-1.1,2.4h-3.73l8.21-17.62h0.11l8.22,17.62h-3.74L526.07,142.2z M524.72,139.26
				l-2.09-4.6l-2.1,4.6H524.72z"/>
			<path class="st4" d="M546.57,136.02c0,5.33-3.39,8.58-8.95,8.58h-5v-17.19l5-0.01C543.18,127.39,546.57,130.66,546.57,136.02z
				 M543.09,136.01c0-3.22-2.07-5.18-5.47-5.18h-1.55v10.33h1.58C541.03,141.16,543.09,139.21,543.09,136.01z"/>
			<path class="st4" d="M557.68,142.2h-6.88l-1.1,2.4h-3.73l8.21-17.62h0.11l8.22,17.62h-3.74L557.68,142.2z M556.34,139.26
				l-2.09-4.6l-2.1,4.6H556.34z"/>
			<path class="st4" d="M562.81,141.64l2.76-1.94c0.76,1.22,1.86,1.77,3.34,1.77c1.62,0,2.71-0.66,2.71-1.58
				c0-1.26-2.06-2.25-3.86-3.15c-1.93-0.96-4.05-2.02-4.05-4.76c0-2.98,2.52-4.94,5.68-4.94c2.35,0,4.29,0.97,5.07,3.05l-2.55,1.78
				c-0.51-1.02-1.5-1.44-2.46-1.44c-1.29,0-2.25,0.75-2.25,1.63c0,1.02,1.3,1.38,3.28,2.3c2.85,1.34,4.64,2.8,4.64,5.44
				c0,3.14-2.56,5.13-6.24,5.13C566.04,144.94,563.96,143.77,562.81,141.64z"/>
			<path class="st4" d="M588.08,130.83h-4.22v13.77h-3.47v-13.77h-4.24v-3.42h11.93V130.83z"/>
			<path class="st4" d="M598.96,144.6l-5.47-8.13v8.13h-3.46l-0.01-17.2h5.61c3.21,0,5.85,2.48,5.85,5.57
				c0,2.21-1.33,4.14-3.18,4.79l4.89,6.84H598.96z M593.48,135.15l2.22,0.01c1.17,0.01,2.22-0.94,2.22-2.17
				c0-1.23-1.06-2.17-2.22-2.17h-2.22V135.15z"/>
			<path class="st4" d="M608.29,130.81v3.36h5.93v3.45h-5.93v3.55h6.91v3.44h-10.37v-17.2h10.37v3.4H608.29z"/>
			<path class="st4" d="M623.25,141.64l2.76-1.94c0.76,1.22,1.86,1.77,3.34,1.77c1.62,0,2.71-0.66,2.71-1.58
				c0-1.26-2.06-2.25-3.86-3.15c-1.93-0.96-4.05-2.02-4.05-4.76c0-2.98,2.52-4.94,5.68-4.94c2.35,0,4.29,0.97,5.07,3.05l-2.55,1.78
				c-0.51-1.02-1.5-1.44-2.46-1.44c-1.29,0-2.25,0.75-2.25,1.63c0,1.02,1.3,1.38,3.28,2.3c2.85,1.34,4.64,2.8,4.64,5.44
				c0,3.14-2.56,5.13-6.24,5.13C626.48,144.94,624.4,143.77,623.25,141.64z"/>
			<path class="st4" d="M637.49,138.24V127.4h3.48v10.83c0,1.88,1.48,3.24,3.15,3.24c1.66,0,3.17-1.38,3.17-3.24V127.4h3.48v10.84
				c0,3.89-2.98,6.73-6.64,6.73C640.46,144.98,637.49,142.14,637.49,138.24z"/>
			<path class="st4" d="M662.46,142.2h-6.88l-1.1,2.4h-3.73l8.21-17.62h0.11l8.23,17.62h-3.74L662.46,142.2z M661.11,139.26
				l-2.09-4.6l-2.1,4.6H661.11z"/>
			<path class="st4" d="M684.35,144.6l-5.47-8.13v8.13h-3.46l-0.01-17.2h5.61c3.21,0,5.85,2.48,5.85,5.57
				c0,2.21-1.33,4.14-3.18,4.79l4.89,6.84H684.35z M678.87,135.15l2.22,0.01c1.17,0.01,2.22-0.94,2.22-2.17
				c0-1.23-1.06-2.17-2.22-2.17h-2.22V135.15z"/>
			<path class="st4" d="M693.68,130.81v3.36h5.93v3.45h-5.93v3.55h6.91v3.44h-10.37v-17.2h10.37v3.4H693.68z"/>
			<path class="st4" d="M702.24,141.64l2.76-1.94c0.76,1.22,1.86,1.77,3.34,1.77c1.62,0,2.71-0.66,2.71-1.58
				c0-1.26-2.06-2.25-3.86-3.15c-1.93-0.96-4.05-2.02-4.05-4.76c0-2.98,2.52-4.94,5.68-4.94c2.35,0,4.29,0.97,5.07,3.05l-2.55,1.78
				c-0.51-1.02-1.5-1.44-2.46-1.44c-1.29,0-2.25,0.75-2.25,1.63c0,1.02,1.3,1.38,3.28,2.3c2.85,1.34,4.64,2.8,4.64,5.44
				c0,3.14-2.56,5.13-6.24,5.13C705.47,144.94,703.39,143.77,702.24,141.64z"/>
			<path class="st4" d="M716.63,127.4h3.46v17.2h-3.46V127.4z"/>
			<path class="st4" d="M737.03,136.02c0,5.33-3.39,8.58-8.95,8.58h-5v-17.19l5-0.01C733.63,127.39,737.03,130.66,737.03,136.02z
				 M733.54,136.01c0-3.22-2.07-5.18-5.47-5.18h-1.55v10.33h1.58C731.48,141.16,733.54,139.21,733.54,136.01z"/>
			<path class="st4" d="M742.73,130.81v3.36h5.93v3.45h-5.93v3.55h6.91v3.44h-10.37v-17.2h10.37v3.4H742.73z M742.55,125.84h-2.74
				l3.36-3.13h1.91l3.4,3.13h-2.76l-1.59-1.57L742.55,125.84z"/>
			<path class="st4" d="M766.01,127.36v17.56h-0.16l-10.21-9.93v9.63h-3.46v-17.54h0.17l10.19,9.91v-9.63H766.01z"/>
			<path class="st4" d="M768.25,136.01c0-4.85,4.09-8.96,8.93-8.96c2.24,0.03,4.22,0.92,6.03,2.66l-1.99,2.72
				c-1.17-1.15-2.58-1.86-4.07-1.86c-2.76,0-5.4,2.45-5.4,5.46c0,3.06,2.73,5.43,5.39,5.43c1.58,0,2.94-0.84,4.09-1.96l1.98,2.8
				c-1.51,1.5-3.36,2.63-5.96,2.63C772.29,144.93,768.25,140.85,768.25,136.01z"/>
			<path class="st4" d="M785.16,127.4h3.46v17.2h-3.46V127.4z"/>
			<path class="st4" d="M802.05,142.2h-6.88l-1.1,2.4h-3.73l8.21-17.62h0.11l8.23,17.62h-3.74L802.05,142.2z M800.7,139.26
				l-2.09-4.6l-2.1,4.6H800.7z"/>
		</g>
		<g>
			<path class="st11" d="M589.05,162.15c0,4.07-2.62,6.6-6.83,6.6h-3.77v-13.24h3.77C586.43,155.51,589.05,158.05,589.05,162.15z
				 M586.95,162.15c0-2.81-1.82-4.57-4.73-4.57h-1.69v9.11h1.72C585.13,166.69,586.95,164.94,586.95,162.15z"/>
			<path class="st11" d="M593.03,157.56v3.39h5.01v2.07h-5.01v3.66h5.81v2.07h-7.89v-13.24h7.89v2.05H593.03z"/>
			<path class="st11" d="M608,157.55v3.54h5.01v2.07H608v5.61h-2.08v-13.29h7.89v2.07H608z"/>
			<path class="st11" d="M614.55,162.15c0-3.78,3.07-6.87,6.84-6.87c3.76,0,6.85,3.09,6.85,6.87c0,3.75-3.09,6.82-6.86,6.82
				C617.62,168.97,614.55,165.9,614.55,162.15z M626.14,162.14c0-2.62-2.14-4.76-4.76-4.76c-2.61,0-4.74,2.14-4.74,4.76
				c0,2.6,2.13,4.73,4.74,4.73C624,166.87,626.14,164.74,626.14,162.14z"/>
			<path class="st11" d="M637.42,168.76l-3.57-5.13h-1.63v5.13h-2.08l-0.01-13.24h4.12c2.46,0,4.49,1.9,4.49,4.26
				c0,1.71-1.1,3.2-2.62,3.69l3.85,5.3H637.42z M634.31,161.91c1.25,0.01,2.29-1,2.29-2.19c0-1.23-1.06-2.14-2.29-2.14h-2.09v4.33
				H634.31z"/>
			<path class="st11" d="M654.34,155.23v13.53h-2.08v-7.34l-4.39,7.12h-0.02l-4.4-7.13v7.35h-2.08v-13.53h0.16l6.33,9.63l6.32-9.63
				H654.34z"/>
			<path class="st11" d="M665.22,166.75h-6.27l-0.9,2.01h-2.25l6.23-13.51h0.12l6.23,13.51h-2.25L665.22,166.75z M664.42,164.96
				l-2.32-5.18l-2.33,5.18H664.42z"/>
			<path class="st11" d="M674.01,166.43l1.64-1.17c0.59,1.03,1.69,1.63,2.97,1.63c1.49,0,2.61-0.71,2.61-1.73
				c0-1.22-1.74-1.96-3.29-2.63c-1.55-0.69-3.28-1.5-3.28-3.57c0-2.17,1.88-3.68,4.26-3.68c1.89,0,3.3,0.91,3.84,2.37l-1.54,1.07
				c-0.41-0.9-1.32-1.4-2.28-1.4c-1.22,0-2.18,0.76-2.18,1.69c0,1.03,1.22,1.4,2.83,2.09c2.09,0.92,3.72,1.93,3.72,4.02
				c0,2.35-2.04,3.86-4.72,3.86C676.42,168.98,674.77,167.96,674.01,166.43z"/>
			<path class="st11" d="M685.1,155.52h2.08v13.24h-2.08V155.52z"/>
			<path class="st11" d="M702.69,155.23v13.53h-2.08v-7.34l-4.39,7.12h-0.02l-4.4-7.13v7.35h-2.08v-13.53h0.16l6.33,9.63l6.32-9.63
				H702.69z"/>
			<path class="st11" d="M705.24,155.52h4.43c2.56,0,4.66,1.96,4.66,4.37c0,2.36-2.09,4.28-4.66,4.28h-2.35v4.59h-2.08V155.52z
				 M712.24,159.87c0-1.26-1.16-2.29-2.58-2.29h-2.35v4.53l2.35,0.01C711.09,162.12,712.24,161.11,712.24,159.87z"/>
			<path class="st11" d="M723.96,166.69v2.07h-7.98v-13.24h2.08v11.17H723.96z"/>
			<path class="st11" d="M727.69,157.56v3.39h5.01v2.07h-5.01v3.66h5.81v2.07h-7.89v-13.24h7.89v2.05H727.69z"/>
			<path class="st11" d="M734.89,166.43l1.64-1.17c0.59,1.03,1.69,1.63,2.97,1.63c1.49,0,2.61-0.71,2.61-1.73
				c0-1.22-1.74-1.96-3.29-2.63c-1.55-0.69-3.28-1.5-3.28-3.57c0-2.17,1.88-3.68,4.26-3.68c1.89,0,3.3,0.91,3.84,2.37l-1.54,1.07
				c-0.41-0.9-1.32-1.4-2.28-1.4c-1.22,0-2.18,0.76-2.18,1.69c0,1.03,1.22,1.4,2.83,2.09c2.09,0.92,3.72,1.93,3.72,4.02
				c0,2.35-2.04,3.86-4.72,3.86C737.3,168.98,735.65,167.96,734.89,166.43z"/>
			<path class="st11" d="M752.99,157.56v3.39H758v2.07h-5.01v3.66h5.81v2.07h-7.89v-13.24h7.89v2.05H752.99z"/>
			<path class="st11" d="M773.16,168.76l-3.57-5.13h-1.63v5.13h-2.08l-0.01-13.24H770c2.46,0,4.49,1.9,4.49,4.26
				c0,1.71-1.1,3.2-2.62,3.69l3.85,5.3H773.16z M770.05,161.91c1.25,0.01,2.29-1,2.29-2.19c0-1.23-1.06-2.14-2.29-2.14h-2.09v4.33
				H770.05z"/>
			<path class="st11" d="M785.45,166.75h-6.27l-0.9,2.01h-2.25l6.23-13.51h0.12l6.23,13.51h-2.25L785.45,166.75z M784.64,164.96
				l-2.32-5.18l-2.33,5.18H784.64z M782.56,154.42h-1.5l1.63-2.69h1.83L782.56,154.42z"/>
			<path class="st11" d="M790.07,155.52h4.43c2.56,0,4.66,1.96,4.66,4.37c0,2.36-2.09,4.28-4.66,4.28h-2.35v4.59h-2.08V155.52z
				 M797.08,159.87c0-1.26-1.16-2.29-2.58-2.29h-2.35v4.53l2.35,0.01C795.92,162.12,797.08,161.11,797.08,159.87z"/>
			<path class="st11" d="M800.8,155.52h2.08v13.24h-2.08V155.52z"/>
			<path class="st11" d="M816.02,162.15c0,4.07-2.62,6.6-6.83,6.6h-3.77v-13.24h3.77C813.4,155.51,816.02,158.05,816.02,162.15z
				 M813.92,162.15c0-2.81-1.82-4.57-4.73-4.57h-1.69v9.11h1.72C812.11,166.69,813.92,164.94,813.92,162.15z"/>
			<path class="st11" d="M825.05,166.75h-6.27l-0.9,2.01h-2.25l6.23-13.51h0.12l6.23,13.51h-2.25L825.05,166.75z M824.25,164.96
				l-2.32-5.18l-2.33,5.18H824.25z"/>
		</g>
	</g>
</g>
</svg>
